<svg width="60" height="61" fill="none" xmlns="http://www.w3.org/2000/svg"><mask id="a" style="mask-type:alpha" maskUnits="userSpaceOnUse" x="0" y="0" width="60" height="61"><circle cx="30" cy="30.077" r="30" fill="#3B2F4A"/></mask><g mask="url(#a)" fill="#fff"><path d="M.444 47.162L54.928 3.214 56.29 4.9 1.805 48.85z"/><path d="M47.903 58.677L-1 8.592.55 7.077l48.904 50.085zM60.49 44.754L22.15-13.813 23.966-15l38.34 58.567zM26.34 72.831L-12 14.264l1.814-1.187 38.34 58.567z"/><path d="M12.65 67.01L59.722 15.2l.74.672-47.072 51.81z"/><path d="M14.531 65.714l60.24-35.652.51.86-60.24 35.652zM-16 36.729L44.24 1.077l.51.86-60.24 35.653zm15 14l60.24-35.652.51.86L-.49 51.59z"/><path d="M-16 49.887l47.072-51.81.74.673-47.072 51.81z"/></g></svg>